<?xml version="1.0" encoding="utf-8"?>
<!-- Svg Vector Icons : http://www.onlinewebfonts.com/icon -->
<!DOCTYPE svg PUBLIC "-//W3C//DTD SVG 1.1//EN" "http://www.w3.org/Graphics/SVG/1.1/DTD/svg11.dtd">
<svg version="1.1" xmlns="http://www.w3.org/2000/svg" xmlns:xlink="http://www.w3.org/1999/xlink" x="0px" y="0px" viewBox="0 0 1000 1000" enable-background="new 0 0 1000 1000" xml:space="preserve">
<metadata> Svg Vector Icons : http://www.onlinewebfonts.com/icon </metadata>
<g><g transform="translate(0.000000,511.000000) scale(0.100000,-0.100000)"><path d="M5138.7,4541c-241.4-38.9-469.3-114.9-701-237.5l-204.4-107.1l-188.9,31.2c-414.7,70.1-780.8,58.4-1150.7-35c-484.8-124.6-983.3-438.1-1300.7-817.8c-66.2-79.8-175.2-181.1-239.5-227.8C426.7,2498.5-13.3,1684.6,124.9,880.5c50.6-288.2,151.9-549.1,313.5-802.2C489.1-1.5,508.5-58,522.1-174.8c66.2-508.2,317.4-847,810-1092.3c206.4-101.3,463.4-183,819.7-257c490.7-101.3,784.7-216.1,1215-477c377.7-229.7,541.3-288.2,788.6-286.2c111,0,200.5,15.6,311.5,50.6c85.7,27.3,161.6,50.6,171.3,50.6c33.1,0,190.8-165.5,266.8-280.4c42.8-68.1,144.1-280.4,222-471.2c169.4-410.8,325.2-751.6,516-1131.3l138.3-278.4h508.2c399.2,0,504.3,5.8,492.6,23.4c-9.7,13.6-56.5,87.6-107.1,165.5c-260.9,401.1-327.1,950.2-161.6,1327.9l46.7,105.1l103.2-13.6c270.7-33.1,784.7-35,996.9-5.8c885.9,126.6,1483.7,588,1801.1,1394.1c146,369.9,329.1,944.3,381.6,1199.4c72,346.6,75.9,808,11.7,1133.2C9745.5,1523,9418.4,2224,9050.4,2701c-399.2,516-872.3,860.6-1546,1123.5c-101.3,38.9-206.4,97.4-255.1,138.2c-103.2,91.5-444,280.4-675.6,375.8C6079.1,4541,5588.5,4611.1,5138.7,4541z M6046,4212c190.8-46.7,430.3-132.4,568.6-204.4l68.1-35l-134.3-11.7c-506.2-48.7-864.5-317.4-991.1-747.7c-37-124.6-70.1-434.2-56.5-508.2c15.6-79.8,72.1-126.6,148-126.6c95.4,0,124.6,52.6,138.2,262.9c7.8,99.3,25.3,225.9,40.9,278.4c74,243.4,241.4,418.6,479,500.4c112.9,38.9,163.6,44.8,457.6,44.8c331,0,331-2,541.3-74c551-188.9,1039.8-510.1,1388.3-909.3c107.1-124.6,397.2-525.7,397.2-551c0-3.9-46.7,3.9-101.3,19.5c-138.2,37-492.6,21.4-638.6-27.3c-165.5-54.5-208.3-190.8-85.7-272.6c44.8-29.2,62.3-29.2,142.1-7.8c334.9,91.5,607.5,50.6,841.1-128.5c81.8-62.3,101.3-91.5,169.4-266.7c251.2-638.7,262.9-1201.4,38.9-1949l-38.9-136.3l-44.8,120.7c-134.4,373.8-447.8,669.8-885.9,835.3c-315.4,120.7-334.9,130.4-535.4,262.9c-216.1,146-447.8,364.1-599.7,568.5c-128.5,173.3-192.8,198.6-290.1,114.9c-95.4-79.8,3.9-259,309.6-570.5l165.5-167.5l-463.4-9.7c-504.3-9.7-553-19.5-591.9-114.9c-29.2-66.2-11.7-126.6,48.7-165.5c38.9-25.3,81.8-27.3,334.9-5.8c621.1,48.7,1285.1-46.7,1660.9-235.6c165.5-83.7,338.8-220,426.4-334.9c130.4-173.3,216.1-410.8,216.1-597.7v-75.9L9029-977c-243.4,62.3-482.9,81.8-839.2,70.1c-486.8-15.6-862.6-107.1-1289-317.4c-186.9-89.6-504.3-288.2-572.5-356.3c-52.5-52.6-52.5-118.8,0-185c62.3-77.9,128.5-66.2,303.8,54.5c730.2,500.4,1581,650.3,2430,430.3c116.8-29.2,116.8-37,5.8-239.5c-227.8-414.7-603.6-720.4-1055.3-858.7c-321.3-99.3-743.8-124.6-1281.2-75.9c-192.8,17.5-278.4,17.5-313.5,1.9c-27.3-11.7-74-75.9-114.9-153.8c-218.1-418.6-227.8-917.1-25.3-1413.6c11.7-31.1-1.9-35-153.8-35h-167.4l-116.8,231.7c-153.8,307.6-266.7,558.8-449.8,1000.8c-223.9,539.4-403,786.6-654.2,903.5l-103.2,46.7l-159.7-62.3c-136.3-54.5-186.9-64.2-327.1-64.2c-192.8-2-278.4,33.1-638.6,249.2c-114.9,68.2-284.3,161.6-377.7,208.4c-148,72-165.5,87.6-153.8,122.6c9.7,25.3-3.9,93.5-42.8,196.7c-237.5,646.4,198.6,1030,1287,1129.3c153.8,15.6,208.3,46.7,227.8,128.5c9.7,37,0,66.2-35,105.1c-42.8,50.6-56.5,54.5-171.3,50.6c-68.1-2-200.5-13.6-294-27.3c-140.2-21.4-181.1-19.5-249.2,1.9c-167.5,56.5-292.1,247.3-292.1,445.9c0,107.1-25.3,157.7-91.5,183c-72,27.3-151.9-9.7-181.1-81.8c-52.6-126.6,48.7-480.9,177.2-613.3l58.4-60.4l-183-87.6c-245.3-118.8-414.7-276.5-516-479c-72-148-72-148-70.1-393.3c0-179.1,9.7-264.8,33.1-329c19.5-46.7,31.2-89.6,27.3-91.5c-3.9-3.9-37,2-74,11.7c-37,11.7-214.2,50.6-395.3,89.6c-545.2,114.9-839.2,239.5-1070.9,455.6C915.5-591.5,810.3-350.1,808.4-63.8c-2,200.5,38.9,296,190.8,445.9c210.3,206.4,479,309.6,728.2,284.3c112.9-11.7,128.5-9.7,171.3,31.2c99.3,91.5,42.8,214.2-118.8,260.9c-227.8,66.2-332.9,192.8-368,438.1c-17.5,128.5-31.2,167.5-68.1,196.7c-58.4,46.7-101.3,46.7-165.5-3.9c-44.8-35-50.6-54.5-50.6-149.9c0-144.1,40.9-290.1,114.9-422.5c33.1-58.4,60.4-109,60.4-112.9c0-3.9-35-17.5-77.9-31.2c-161.6-48.7-442-270.6-576.3-457.6l-42.8-58.4l-38.9,77.9c-128.5,255.1-190.8,551-173.3,841.1c25.3,465.4,290.1,934.6,765.2,1351.3c105.1,95.4,198.6,171.3,204.4,171.3c5.8,0,17.5-72,23.4-159.7c21.4-352.4,173.3-539.3,315.4-395.3c56.5,54.5,60.4,105.1,19.5,183c-44.8,87.6-68.2,280.4-48.7,403.1c33.1,196.7,126.6,364.1,290.1,517.9c358.3,332.9,741.8,529.6,1197.5,609.4c202.5,35,514,38.9,720.4,7.8l144.1-21.4l-56.5-118.8c-60.4-130.5-87.6-259-66.2-325.2c19.5-58.4,118.8-97.4,186.9-74c54.5,19.5,83.7,74,103.2,192.8c19.5,114.9,149.9,276.5,311.5,383.6c171.3,114.9,348.5,186.9,586.1,237.5C5341.2,4293.7,5769.6,4282.1,6046,4212z"/><path d="M3374.6,3217c-264.8-56.5-482.9-212.2-580.2-410.8c-74-149.9-74-231.7-3.9-294c42.8-35,68.1-44.8,107.1-35c72,17.5,95.4,42.8,122.7,130.5c33.1,109,151.9,235.6,270.6,288.2c64.2,27.3,161.6,46.7,259,54.5c179.1,11.7,245.3,54.5,245.3,157.7C3795.2,3236.5,3643.3,3275.4,3374.6,3217z"/><path d="M4186.6,2592c-23.4-29.2-40.9-68.2-40.9-87.6c0-79.8,46.7-249.2,97.4-350.5l52.6-111l-114.9-31.2c-223.9-62.3-455.6-198.6-628.9-371.9c-247.3-247.3-294-416.7-134.3-477c74-29.2,120.7,0,212.2,128.5c157.7,222,414.7,389.4,710.7,469.2c169.4,44.8,541.3,42.8,739.9-1.9c268.7-62.3,299.8-62.3,346.6-2c66.2,83.7,54.5,167.5-33.1,212.2c-72.1,37-311.5,87.6-512.1,107.1c-101.2,9.7-198.6,31.2-243.4,54.5c-95.4,50.6-175.2,179.1-196.7,323.2c-21.4,134.4-64.3,188.9-151.9,188.9C4245,2642.6,4215.8,2629,4186.6,2592z"/><path d="M4540.9-437.7c-23.4-11.7-52.6-44.8-64.2-74c-31.2-74,5.8-305.7,68.1-442c95.4-210.3,321.3-383.6,533.5-408.9c79.8-9.7,101.3-3.9,136.3,31.2c42.8,42.9,52.6,118.8,21.4,177.2c-9.7,19.5-64.2,50.6-120.7,70.1c-243.4,79.8-366.1,243.4-366.1,490.7C4749.3-457.2,4651.9-383.2,4540.9-437.7z"/></g></g>
</svg>