<?xml version="1.0" encoding="UTF-8"?>
<!-- Converted by misc2svg (http://www.network-science.de/tools/misc2svg/) -->
<svg xmlns="http://www.w3.org/2000/svg" xmlns:xlink="http://www.w3.org/1999/xlink" width="553pt" height="380pt" viewBox="0 0 553 380" version="1.1">
<defs>
<clipPath id="clip1">
  <path d="M 0 380 L 552.5 380 L 552.5 0 L 0 0 L 0 380 Z M 0 380 "/>
</clipPath>
</defs>
<g id="misc2svg">
<g clip-path="url(#clip1)" clip-rule="nonzero">
<path style="fill: none; stroke-width: 15; stroke-linecap: butt; stroke-linejoin: miter; stroke: rgb(0%,0%,0%); stroke-opacity: 1;stroke-miterlimit: 10; " d="M 9811.125 2345.5 C 10819.75 2345.5 11637.5 2225.9375 11637.5 2078.4375 C 11637.5 1930.9375 10819.75 1811.4375 9811.125 1811.4375 C 8802.4375 1811.4375 7984.6875 1930.9375 7984.6875 2078.4375 C 7984.6875 2225.9375 8802.4375 2345.5 9811.125 2345.5 " transform="matrix(0.0625,0,0,0.0625,-192.5,-107.5)"/>
<path style="fill: none; stroke-width: 15; stroke-linecap: butt; stroke-linejoin: miter; stroke: rgb(0%,0%,0%); stroke-opacity: 1;stroke-miterlimit: 10; " d="M 9803.625 2462.4375 C 10930.25 2462.4375 11843.625 2314.125 11843.625 2131.3125 C 11843.625 1948.4375 10930.25 1800.125 9803.625 1800.125 C 8676.875 1800.125 7763.5 1948.4375 7763.5 2131.3125 C 7763.5 2314.125 8676.875 2462.4375 9803.625 2462.4375 " transform="matrix(0.0625,0,0,0.0625,-192.5,-107.5)"/>
<path style="fill: none; stroke-width: 15; stroke-linecap: butt; stroke-linejoin: miter; stroke: rgb(0%,0%,0%); stroke-opacity: 1;stroke-miterlimit: 10; " d="M 11721.875 2237.0625 C 11721.875 2237.0625 10354.9375 4616 10309.5625 4691.5625 C 10264.3125 4767.125 10166.125 4903.0625 10166.125 5212.6875 C 10166.125 5522.3125 10166.125 6171.875 10166.125 6171.875 " transform="matrix(0.0625,0,0,0.0625,-192.5,-107.5)"/>
<path style="fill: none; stroke-width: 15; stroke-linecap: butt; stroke-linejoin: miter; stroke: rgb(0%,0%,0%); stroke-opacity: 1;stroke-miterlimit: 10; " d="M 7885.25 2237.0625 C 7885.25 2237.0625 9252.25 4616 9297.5625 4691.5625 C 9342.875 4767.125 9441 4903.0625 9441 5212.6875 C 9441 5522.3125 9441 6171.875 9441 6171.875 " transform="matrix(0.0625,0,0,0.0625,-192.5,-107.5)"/>
<path style="fill: none; stroke-width: 15; stroke-linecap: butt; stroke-linejoin: miter; stroke: rgb(0%,0%,0%); stroke-opacity: 1;stroke-miterlimit: 10; " d="M 9440.375 6194.5 C 9440.375 6265.3125 9603 6322.6875 9803.625 6322.6875 C 10004.125 6322.6875 10166.75 6265.3125 10166.75 6194.5 " transform="matrix(0.0625,0,0,0.0625,-192.5,-107.5)"/>
<path style="fill: none; stroke-width: 15; stroke-linecap: butt; stroke-linejoin: miter; stroke: rgb(0%,0%,0%); stroke-opacity: 1;stroke-miterlimit: 10; " d="M 10166.75 6194.5 C 10166.75 6123.75 10004.125 6066.3125 9803.625 6066.3125 C 9603 6066.3125 9440.375 6123.75 9440.375 6194.5 " transform="matrix(0.0625,0,0,0.0625,-192.5,-107.5)"/>
<path style="fill: none; stroke-width: 15; stroke-linecap: butt; stroke-linejoin: miter; stroke: rgb(0%,0%,0%); stroke-opacity: 1;stroke-miterlimit: 10; " d="M 4749.9375 2248 C 5524.4375 2248 6152.25 2172.0625 6152.25 2078.375 C 6152.25 1984.625 5524.4375 1908.6875 4749.9375 1908.6875 C 3975.5 1908.6875 3347.625 1984.625 3347.625 2078.375 C 3347.625 2172.0625 3975.5 2248 4749.9375 2248 " transform="matrix(0.0625,0,0,0.0625,-192.5,-107.5)"/>
<path style="fill: none; stroke-width: 15; stroke-linecap: butt; stroke-linejoin: miter; stroke: rgb(0%,0%,0%); stroke-opacity: 1;stroke-miterlimit: 10; " d="M 4741.9375 2344.4375 C 5616.3125 2344.4375 6325.25 2243.1875 6325.25 2118.25 C 6325.25 1993.375 5616.3125 1892.125 4741.9375 1892.125 C 3867.5625 1892.125 3158.6875 1993.375 3158.6875 2118.25 C 3158.6875 2243.1875 3867.5625 2344.4375 4741.9375 2344.4375 " transform="matrix(0.0625,0,0,0.0625,-192.5,-107.5)"/>
<path style="fill: none; stroke-width: 15; stroke-linecap: butt; stroke-linejoin: miter; stroke: rgb(0%,0%,0%); stroke-opacity: 1;stroke-miterlimit: 10; " d="M 3262.5625 2198.25 C 3262.5625 2198.25 4566 4413.375 4598.0625 4469.375 C 4630 4525.3125 4637.9375 4525.3125 4637.9375 4597.25 C 4637.9375 4669.1875 4637.9375 7476.0625 4637.9375 7476.0625 " transform="matrix(0.0625,0,0,0.0625,-192.5,-107.5)"/>
<path style="fill: none; stroke-width: 15; stroke-linecap: butt; stroke-linejoin: miter; stroke: rgb(0%,0%,0%); stroke-opacity: 1;stroke-miterlimit: 10; " d="M 6254.8125 2198.25 C 6254.8125 2198.25 4951.375 4413.375 4919.375 4469.375 C 4887.4375 4525.3125 4879.375 4525.3125 4879.375 4597.25 C 4879.375 4669.1875 4879.375 7719 4879.375 7719 " transform="matrix(0.0625,0,0,0.0625,-192.5,-107.5)"/>
<path style="fill: none; stroke-width: 15; stroke-linecap: butt; stroke-linejoin: miter; stroke: rgb(0%,0%,0%); stroke-opacity: 1;stroke-miterlimit: 10; " d="M 4725.9375 7625.375 C 4789.6875 7694.5 4855.25 7737.875 4872.3125 7722.125 C 4889.4375 7706.3125 4851.625 7637.5 4787.875 7568.375 C 4724.125 7499.125 4658.5625 7455.875 4641.5 7471.625 C 4624.375 7487.3125 4662.1875 7556.1875 4725.9375 7625.375 " transform="matrix(0.0625,0,0,0.0625,-192.5,-107.5)"/>
</g>
</g>
</svg>
