<?xml version="1.0" encoding="UTF-8" standalone="no"?>
<!DOCTYPE svg PUBLIC "-//W3C//DTD SVG 1.0//EN" "http://www.w3.org/TR/2001/REC-SVG-20010904/DTD/svg10.dtd">
<!-- Generated by Microsoft Visio 11.0, SVG Export, v1.0 Funnel.svg Page-1 -->
<svg xmlns="http://www.w3.org/2000/svg" xmlns:xlink="http://www.w3.org/1999/xlink" xmlns:ev="http://www.w3.org/2001/xml-events"
		xmlns:v="http://schemas.microsoft.com/visio/2003/SVGExtensions/" width="1.10667in" height="1.0031in"
		viewBox="0 0 79.68 72.2229" xml:space="preserve" color-interpolation-filters="sRGB" class="st3">
	<v:documentProperties v:langID="1033" v:viewMarkup="false"/>

	<style type="text/css">
	<![CDATA[
		.st1 {fill:#ffffff;stroke:#000000;stroke-linecap:round;stroke-linejoin:round;stroke-width:0.24}
		.st2 {stroke:#000000;stroke-linecap:round;stroke-linejoin:round;stroke-width:0.24}
		.st3 {fill:none;fill-rule:evenodd;font-size:12px;overflow:visible;stroke-linecap:square;stroke-miterlimit:3}
	]]>
	</style>

	<g v:mID="0" v:index="1" v:groupContext="foregroundPage">
		<title>Page-1</title>
		<v:pageProperties v:drawingScale="1" v:pageScale="1" v:drawingUnits="0" v:shadowOffsetX="9" v:shadowOffsetY="-9"/>
		<g id="group1-1" transform="translate(0.24,-0.489805)" v:mID="1" v:groupContext="group">
			<title>Funnel 2</title>
			<g id="shape2-2" v:mID="2" v:groupContext="shape" transform="translate(0,-57.0931)">
				<title>Sheet.2</title>
				<ellipse cx="39.6" cy="65.0229" rx="39.6" ry="7.2" class="st1"/>
			</g>
			<g id="shape3-4" v:mID="3" v:groupContext="shape" transform="translate(55.9483,-37.0222) rotate(50.7743)">
				<title>Sheet.3</title>
				<path d="M0 72.22 L45.54 72.22" class="st2"/>
			</g>
			<g id="shape4-7" v:mID="4" v:groupContext="shape" transform="translate(134.533,54.913) rotate(129.094)">
				<title>Sheet.4</title>
				<path d="M0 72.22 L44.53 72.22" class="st2"/>
			</g>
			<g id="shape5-10" v:mID="5" v:groupContext="shape" transform="translate(98.5076,25.0353) rotate(74.8342)">
				<title>Sheet.5</title>
				<path d="M0 72.22 L27.52 72.22" class="st2"/>
			</g>
			<g id="shape6-13" v:mID="6" v:groupContext="shape" transform="translate(-26.5076,51.5983) rotate(-74.8342)">
				<title>Sheet.6</title>
				<path d="M0 72.22 L27.52 72.22" class="st2"/>
			</g>
			<g id="shape7-16" v:mID="7" v:groupContext="shape" transform="translate(66.3529,5.50081) rotate(25.0337)">
				<title>Sheet.7</title>
				<path d="M-0 71.73 A2.80951 1.68129 -0 0 0 3.97 71.73" class="st2"/>
			</g>
			<g id="shape8-19" v:mID="8" v:groupContext="shape" transform="translate(73.7612,135.931) rotate(154.966)">
				<title>Sheet.8</title>
				<path d="M-0 72.22 A2.80951 2.02949 0 0 1 3.97 72.22" class="st2"/>
			</g>
			<g id="shape9-22" v:mID="9" v:groupContext="shape" transform="translate(28.8,-26.1331)">
				<title>Sheet.9</title>
				<path d="M0 70.06 A10.8 2.16 -180 0 0 10.8 72.22 A10.8 2.16 -180 0 0 21.6 70.06" class="st2"/>
			</g>
		</g>
	</g>
</svg>
