<?xml version="1.0" standalone="no"?>
<!DOCTYPE svg PUBLIC "-//W3C//DTD SVG 20010904//EN"
 "http://www.w3.org/TR/2001/REC-SVG-20010904/DTD/svg10.dtd">
<svg version="1.0" xmlns="http://www.w3.org/2000/svg"
 width="1161.000000pt" height="1280.000000pt" viewBox="0 0 1161.000000 1280.000000"
 preserveAspectRatio="xMidYMid meet">
<metadata>
Created by potrace 1.15, written by Peter Selinger 2001-2017
</metadata>
<g transform="translate(0.000000,1280.000000) scale(0.100000,-0.100000)"
fill="#795548" stroke="none">
<path d="M5845 12790 c-987 -64 -1827 -325 -2533 -786 -866 -566 -1464 -1392
-1708 -2359 -39 -155 -79 -378 -89 -500 -12 -142 21 -341 80 -490 l27 -67 -58
-86 c-86 -130 -236 -328 -459 -607 -111 -137 -284 -354 -385 -480 -352 -438
-522 -681 -626 -890 -75 -152 -99 -235 -91 -317 13 -149 112 -244 413 -397 91
-46 114 -53 232 -71 73 -11 157 -30 188 -41 74 -28 130 -83 139 -138 8 -49 3
-76 -40 -211 -19 -58 -37 -125 -41 -150 -9 -60 -40 -120 -109 -211 -74 -96
-105 -161 -105 -222 0 -98 48 -170 181 -272 54 -42 105 -85 113 -96 23 -33 3
-69 -95 -176 -96 -105 -129 -159 -129 -214 0 -41 10 -56 118 -179 166 -188
225 -302 226 -430 0 -69 -9 -101 -101 -380 -120 -363 -137 -441 -131 -594 6
-132 25 -190 101 -304 71 -108 232 -266 336 -330 142 -87 337 -158 461 -168
36 -3 403 -9 815 -14 829 -8 809 -7 950 -75 199 -95 310 -234 429 -537 103
-262 149 -510 150 -800 l1 -198 3129 0 3128 0 -5 23 c-4 12 -29 135 -56 272
-171 855 -312 1775 -383 2495 -17 180 -22 292 -22 560 0 334 0 335 27 432 59
214 182 487 329 733 37 61 134 209 217 330 307 449 488 723 541 820 175 319
395 988 494 1500 129 673 139 1359 26 1950 -291 1526 -1313 2688 -2875 3270
-556 207 -1137 331 -1820 390 -211 18 -803 27 -990 15z"/>
</g>
</svg>
