<?xml version="1.0" standalone="no"?>
<!DOCTYPE svg PUBLIC "-//W3C//DTD SVG 20010904//EN"
 "http://www.w3.org/TR/2001/REC-SVG-20010904/DTD/svg10.dtd">
<svg version="1.0" xmlns="http://www.w3.org/2000/svg"
 width="1143.000000pt" height="1280.000000pt" viewBox="0 0 1143.000000 1280.000000"
 preserveAspectRatio="xMidYMid meet">
<g transform="translate(0.000000,1280.000000) scale(0.100000,-0.100000)"
fill="#000000" stroke="none">
<path d="M5247 12529 c-20 -16 -58 -37 -84 -46 -27 -9 -53 -20 -60 -25 -6 -5
-85 -29 -175 -53 -747 -200 -1458 -507 -2108 -911 -830 -515 -1541 -1195
-2061 -1970 -256 -382 -504 -859 -665 -1279 -23 -60 -40 -112 -38 -114 1 -1
40 26 86 62 109 84 202 144 313 199 140 70 325 126 325 99 0 -6 -22 -56 -49
-110 -85 -169 -106 -259 -68 -283 25 -16 73 -7 203 37 245 83 424 115 647 115
263 0 511 -43 812 -141 294 -96 304 -95 556 71 418 275 796 358 1177 259 102
-27 238 -85 358 -155 130 -75 157 -85 220 -85 58 0 52 -3 334 143 147 77 304
144 382 163 25 6 28 4 37 -32 18 -69 31 -275 172 -2758 231 -4080 207 -3574
202 -4280 l-5 -610 22 -28 c34 -43 77 -60 155 -61 84 -1 135 15 175 56 35 34
38 64 16 160 -20 86 -50 280 -85 548 -65 498 -91 773 -121 1300 -16 294 -93
1641 -170 2993 -133 2335 -151 2717 -131 2717 5 0 28 -7 51 -15 64 -23 113
-19 178 14 159 80 331 56 642 -90 73 -34 151 -64 175 -66 61 -7 113 20 240
126 379 319 696 414 1093 330 53 -11 212 -59 352 -106 367 -124 387 -124 600
2 351 208 615 295 940 311 159 8 331 -8 580 -53 311 -57 361 -57 385 1 16 37
8 81 -27 149 -18 37 -18 40 -2 51 16 12 11 24 -55 151 -43 82 -69 144 -66 155
6 20 -58 122 -179 285 -46 61 -122 163 -170 228 -139 187 -238 300 -415 478
-370 369 -774 658 -1323 943 -186 97 -280 140 -678 311 -536 231 -955 370
-1455 484 -99 23 -297 68 -440 101 -143 32 -354 80 -470 105 -115 25 -220 47
-232 50 -15 4 -26 17 -33 43 -17 62 -22 65 -63 31z"/>
<path d="M6175 796 c-10 -23 -15 -69 -15 -131 0 -88 2 -98 24 -120 14 -14 31
-22 40 -19 23 9 38 68 30 121 -9 63 -42 171 -54 178 -6 4 -17 -9 -25 -29z"/>
</g>
</svg>
